<?xml version="1.0" encoding="UTF-8"?>
<svg version="1.1" xmlns="http://www.w3.org/2000/svg" width="2542" height="673">
<path d="M0 0 C838.2 0 1676.4 0 2540 0 C2540 221.76 2540 443.52 2540 672 C1701.8 672 863.6 672 0 672 C0 450.24 0 228.48 0 0 Z " fill="#FEFEFE" transform="translate(2,1)"/>
<path d="M0 0 C19.47 0 38.94 0 59 0 C59 114.84 59 229.68 59 348 C40.52 348 22.04 348 3 348 C2.67 338.1 2.34 328.2 2 318 C-2.95 322.95 -2.95 322.95 -8 328 C-34.05915392 348.42474226 -66.16585168 354.08768147 -98.53125 350.4609375 C-130.40853793 346.14177625 -160.68047261 330.72895673 -180.7109375 305.19921875 C-198.9427464 279.71824351 -206.4425387 252.71835149 -206.4375 221.5625 C-206.43889984 220.73050079 -206.44029968 219.89850159 -206.44174194 219.04129028 C-206.42265256 205.19849735 -205.1875513 192.27436044 -201 179 C-200.61585937 177.76378906 -200.23171875 176.52757812 -199.8359375 175.25390625 C-188.81945282 144.04053299 -165.12489676 119.38923612 -135.5625 105.1875 C-130.3349914 102.79452415 -124.99622453 100.86688446 -119.5 99.1875 C-118.55942749 98.8949231 -118.55942749 98.8949231 -117.59985352 98.59643555 C-105.59012685 95.1765071 -93.0966077 94.63214049 -80.6875 94.6875 C-80.0140152 94.68998749 -79.3405304 94.69247498 -78.64663696 94.69503784 C-47.16596698 94.87412465 -25.15119713 104.29897389 -1 125 C-0.505 63.125 -0.505 63.125 0 0 Z " fill="#000000" transform="translate(1453,108)"/>
<path d="M0 0 C1.07542557 -0.00110275 1.07542557 -0.00110275 2.1725769 -0.00222778 C14.26785174 0.03017942 25.40541019 1.21968691 36.8125 5.4375 C37.89917969 5.8389624 37.89917969 5.8389624 39.0078125 6.24853516 C55.71968451 12.63902922 69.31342215 22.09137142 80.21875 36.37109375 C81.79285189 38.50323328 81.79285189 38.50323328 83.8125 40.4375 C84.20179688 39.96441406 84.59109375 39.49132812 84.9921875 39.00390625 C101.08901062 19.97701625 123.27968517 6.93723739 147.8125 2.4375 C148.73691895 2.26162354 149.66133789 2.08574707 150.61376953 1.90454102 C158.78091715 0.48529245 166.80366616 0.09607055 175.06835938 0.12182617 C177.17891171 0.12498714 179.2880567 0.10141215 181.3984375 0.07617188 C207.57766356 -0.04622589 233.07380751 9.01221933 252.0625 27.3125 C278.90119342 55.25183384 280.30124398 92.05437466 280.11668181 128.57210445 C280.09769206 132.97491469 280.09614728 137.37773374 280.09260559 141.78057861 C280.08334966 150.08501488 280.05882508 158.38933004 280.02855712 166.69371343 C279.9948099 176.16193638 279.97847647 185.63016567 279.96347082 195.09843397 C279.93226829 214.54487153 279.87733892 233.99114349 279.8125 253.4375 C260.3425 253.4375 240.8725 253.4375 220.8125 253.4375 C220.8031543 249.12469971 220.79380859 244.81189941 220.78417969 240.3684082 C220.75027455 226.05133572 220.69484797 211.73440465 220.62859726 197.41744709 C220.58898233 188.74484812 220.55650157 180.07233758 220.54150391 171.3996582 C220.52839552 163.83039324 220.50120069 156.26132431 220.45788693 148.69216985 C220.43547596 144.6935347 220.41957685 140.69513944 220.42061615 136.69643593 C221.16761466 99.22275084 221.16761466 99.22275084 204.453125 66.8828125 C190.1019554 54.24011547 173.94661387 52.66723231 155.63525391 53.25830078 C140.33599893 54.22955603 127.22236726 61.44040945 116.8125 72.4375 C99.89993925 92.81169599 100.19825634 117.73522492 100.20499516 142.83598685 C100.20182415 146.73706984 100.17612092 150.63801007 100.15301514 154.53901672 C100.11276731 161.8942787 100.09218876 169.24945274 100.07904124 176.60480767 C100.06306414 184.99210744 100.02460479 193.37925978 99.98444796 201.76647317 C99.9024772 218.99012728 99.85108486 236.21368574 99.8125 253.4375 C80.3425 253.4375 60.8725 253.4375 40.8125 253.4375 C40.79268066 249.08280518 40.77286133 244.72811035 40.75244141 240.24145508 C40.68543458 225.82856864 40.60789396 211.41575296 40.52497292 197.00294971 C40.47497018 188.26736493 40.42852644 179.53178895 40.390625 170.79614258 C40.3575594 163.17719919 40.31764911 155.55832673 40.26970994 147.93946189 C40.2445889 143.90984325 40.22276617 139.88027079 40.20915604 135.85059547 C40.19620368 132.04781774 40.17401158 128.24519955 40.14511681 124.4425106 C40.1319053 122.40180943 40.1281452 120.3610537 40.12480164 118.3203125 C39.95054604 98.86570117 36.53487032 80.03861813 22.90234375 65.44140625 C10.68235634 53.72392299 -6.15333695 52.96541653 -22.1328125 53.16015625 C-38.29301101 53.661267 -52.14839981 60.7376086 -63.1875 72.4375 C-65.47816748 75.30083435 -67.37509225 78.25354044 -69.1875 81.4375 C-69.62707031 82.16066406 -70.06664062 82.88382812 -70.51953125 83.62890625 C-73.41002314 88.78987515 -75.05154133 94.03755098 -76.4375 99.75 C-76.60072754 100.41257812 -76.76395508 101.07515625 -76.93212891 101.7578125 C-79.37449768 112.64052918 -79.33902384 123.92996837 -79.39282227 135.03051758 C-79.40272186 136.31988724 -79.41262146 137.6092569 -79.42282104 138.93769836 C-79.44952243 142.4285339 -79.4707169 145.91938248 -79.49082303 149.41026139 C-79.51290083 153.07510049 -79.54018143 156.73990103 -79.56687927 160.40470886 C-79.61651492 167.3245347 -79.66156003 174.24438227 -79.70490164 181.16425008 C-79.76382798 190.52921151 -79.82995568 199.89412204 -79.89565182 209.25903797 C-79.99877003 223.98515752 -80.0923618 238.71132173 -80.1875 253.4375 C-99.6575 253.4375 -119.1275 253.4375 -139.1875 253.4375 C-139.1875 170.6075 -139.1875 87.7775 -139.1875 2.4375 C-120.3775 2.4375 -101.5675 2.4375 -82.1875 2.4375 C-81.6925 16.7925 -81.6925 16.7925 -81.1875 31.4375 C-78.8775 29.1275 -76.5675 26.8175 -74.1875 24.4375 C-64.02621096 16.01814622 -52.71356714 9.3514137 -40.25 5.0625 C-39.57187256 4.8238623 -38.89374512 4.58522461 -38.19506836 4.33935547 C-25.91574967 0.38584651 -12.79923353 -0.00578062 0 0 Z " fill="#010101" transform="translate(620.1875,202.5625)"/>
<path d="M0 0 C2.59548318 0.00315221 5.18981356 -0.02035904 7.78515625 -0.0456543 C22.4043772 -0.10250499 36.34480177 1.59306963 50.23828125 6.37817383 C51.11057373 6.6763501 51.98286621 6.97452637 52.8815918 7.28173828 C80.04215753 16.95969738 102.04433266 34.37424895 117.86328125 58.31567383 C118.42660156 59.14454102 118.98992187 59.9734082 119.5703125 60.82739258 C124.47521044 68.450044 127.89016581 76.78420149 130.86328125 85.31567383 C131.12592773 86.06671387 131.38857422 86.81775391 131.65917969 87.59155273 C135.99092413 100.75682235 136.33570914 113.96559129 136.36328125 127.69067383 C136.36786346 128.54162628 136.37244568 129.39257874 136.37716675 130.26931763 C136.4075039 144.49504429 135.21527762 158.36878814 130.17578125 171.81567383 C129.92231934 172.50870605 129.66885742 173.20173828 129.40771484 173.91577148 C123.10115187 190.63364898 114.14472498 204.31300437 101.86328125 217.31567383 C101.115625 218.13938477 100.36796875 218.9630957 99.59765625 219.81176758 C92.83016678 226.9938218 85.25902234 232.24218685 76.86328125 237.31567383 C76.26386719 237.67935059 75.66445312 238.04302734 75.046875 238.41772461 C41.0319471 258.66782042 -0.80459107 261.10803177 -38.68164062 251.68237305 C-61.22928995 245.5791468 -80.68158868 232.62660661 -97.13671875 216.31567383 C-98.35681641 215.11491211 -98.35681641 215.11491211 -99.6015625 213.88989258 C-122.18393384 190.27563784 -131.89793455 156.85823472 -131.47094727 124.81884766 C-130.68514574 95.70597588 -121.97754003 68.8333981 -103.13671875 46.31567383 C-102.68151855 45.77088379 -102.22631836 45.22609375 -101.75732422 44.66479492 C-85.14116905 25.09728005 -62.87605555 11.9089328 -38.44921875 4.50317383 C-37.80911865 4.30804199 -37.16901855 4.11291016 -36.50952148 3.91186523 C-24.46378505 0.48921461 -12.43311894 -0.0314556 0 0 Z " fill="#010101" transform="translate(1079.13671875,202.684326171875)"/>
<path d="M0 0 C19.47 0 38.94 0 59 0 C59.029729 6.47874756 59.029729 6.47874756 59.06005859 13.08837891 C59.12708897 27.38949972 59.20462949 41.69054946 59.28752708 55.99158669 C59.33751266 64.65876145 59.3839564 73.32592741 59.421875 81.99316406 C59.45495866 89.55315361 59.49487847 97.11307194 59.54279006 104.67298257 C59.56789344 108.67077494 59.58972106 112.66852105 59.60334396 116.66637039 C59.61631276 120.44042436 59.63852132 124.21431835 59.66738319 127.98828316 C59.68057077 130.0109 59.68435157 132.03357158 59.68769836 134.05622864 C59.78949568 145.35710825 60.50448251 156.7882876 64.75 167.375 C65.01240479 168.04781006 65.27480957 168.72062012 65.54516602 169.41381836 C67.67519352 174.65212234 70.16572895 178.87377938 74 183 C74.48726562 183.5878125 74.97453125 184.175625 75.4765625 184.78125 C85.60274088 196.15449469 99.84165608 199.31585506 114.3515625 200.34765625 C132.15920963 201.17614665 149.55885952 196.37416711 163.25 184.75 C179.38025181 169.4364698 184.29950425 149.30552234 185.12317657 127.7811203 C185.33318414 119.42938361 185.37286241 111.07611751 185.40471697 102.72219801 C185.42056857 99.09873984 185.44728577 95.47536031 185.4727478 91.85195923 C185.51915222 85.02084871 185.55607911 78.18972273 185.58942068 71.35853732 C185.63514385 62.1061356 185.69587354 52.85383238 185.75566864 43.60151291 C185.84920866 29.06772517 185.92301527 14.53390673 186 0 C205.47 0 224.94 0 245 0 C245 82.5 245 165 245 250 C226.19 250 207.38 250 188 250 C187.67 240.43 187.34 230.86 187 221 C184.36 223.64 181.72 226.28 179 229 C163.60216217 241.7430382 145.6025506 248.89510428 126 252 C125.23945313 252.13148438 124.47890625 252.26296875 123.6953125 252.3984375 C94.70683802 256.57187546 61.64755159 250.68283356 37.71630859 233.38012695 C14.76456147 215.9613298 4.37946365 190.97000139 0.46388245 163.19740295 C-0.27811321 156.31107242 -0.13116273 149.39092784 -0.11352539 142.47436523 C-0.11324291 140.91640729 -0.11340245 139.3584492 -0.1139679 137.80049133 C-0.11425348 133.59453504 -0.10839539 129.38860758 -0.10139394 125.18265796 C-0.09512061 120.77843547 -0.09455346 116.37421223 -0.09336853 111.96998596 C-0.09026692 103.64044384 -0.08206935 95.31091493 -0.07201904 86.98137861 C-0.06082151 77.49404872 -0.05533829 68.00671818 -0.05032361 58.51938331 C-0.03988571 39.01291321 -0.02155483 19.5064612 0 0 Z " fill="#010101" transform="translate(2027,206)"/>
<path d="M0 0 C19.47 0 38.94 0 59 0 C59.029729 6.47874756 59.029729 6.47874756 59.06005859 13.08837891 C59.12708897 27.38949972 59.20462949 41.69054946 59.28752708 55.99158669 C59.33751266 64.65876145 59.3839564 73.32592741 59.421875 81.99316406 C59.45495866 89.55315361 59.49487847 97.11307194 59.54279006 104.67298257 C59.56789344 108.67077494 59.58972106 112.66852105 59.60334396 116.66637039 C59.61631276 120.44042436 59.63852132 124.21431835 59.66738319 127.98828316 C59.68057077 130.0109 59.68435157 132.03357158 59.68769836 134.05622864 C59.78949568 145.35710825 60.50448251 156.7882876 64.75 167.375 C65.01240479 168.04781006 65.27480957 168.72062012 65.54516602 169.41381836 C67.67519352 174.65212234 70.16572895 178.87377938 74 183 C74.48726562 183.5878125 74.97453125 184.175625 75.4765625 184.78125 C85.60274088 196.15449469 99.84165608 199.31585506 114.3515625 200.34765625 C132.15920963 201.17614665 149.55885952 196.37416711 163.25 184.75 C179.38025181 169.4364698 184.29950425 149.30552234 185.12317657 127.7811203 C185.33318414 119.42938361 185.37286241 111.07611751 185.40471697 102.72219801 C185.42056857 99.09873984 185.44728577 95.47536031 185.4727478 91.85195923 C185.51915222 85.02084871 185.55607911 78.18972273 185.58942068 71.35853732 C185.63514385 62.1061356 185.69587354 52.85383238 185.75566864 43.60151291 C185.84920866 29.06772517 185.92301527 14.53390673 186 0 C205.47 0 224.94 0 245 0 C245 82.5 245 165 245 250 C226.19 250 207.38 250 188 250 C187.67 240.43 187.34 230.86 187 221 C184.36 223.64 181.72 226.28 179 229 C163.60216217 241.7430382 145.6025506 248.89510428 126 252 C125.23945312 252.13148438 124.47890625 252.26296875 123.6953125 252.3984375 C94.70683802 256.57187546 61.64755159 250.68283356 37.71630859 233.38012695 C14.76456147 215.9613298 4.37946365 190.97000139 0.46388245 163.19740295 C-0.27811321 156.31107242 -0.13116273 149.39092784 -0.11352539 142.47436523 C-0.11324291 140.91640729 -0.11340245 139.3584492 -0.1139679 137.80049133 C-0.11425348 133.59453504 -0.10839539 129.38860758 -0.10139394 125.18265796 C-0.09512061 120.77843547 -0.09455346 116.37421223 -0.09336853 111.96998596 C-0.09026692 103.64044384 -0.08206935 95.31091493 -0.07201904 86.98137861 C-0.06082151 77.49404872 -0.05533829 68.00671818 -0.05032361 58.51938331 C-0.03988571 39.01291321 -0.02155483 19.5064612 0 0 Z " fill="#010101" transform="translate(1582,206)"/>
<path d="M0 0 C1.12938492 -0.00655609 1.12938492 -0.00655609 2.28158569 -0.01324463 C37.79616481 -0.16214123 73.56061479 2.46595193 104.86328125 21.16796875 C103.2894236 26.40840735 101.04242728 31.14791647 98.6171875 36.03125 C98.20540756 36.86383835 97.79362762 37.6964267 97.36936951 38.554245 C96.50159188 40.30425037 95.63160033 42.05315947 94.75952148 43.80102539 C93.423925 46.4841979 92.10344171 49.17447875 90.78320312 51.86523438 C89.93711636 53.56686323 89.09014205 55.26805113 88.2421875 56.96875 C87.84834366 57.77597 87.45449982 58.58319 87.04872131 59.41487122 C86.675009 60.15621811 86.30129669 60.897565 85.91625977 61.66137695 C85.59142105 62.31612503 85.26658234 62.97087311 84.93190002 63.64546204 C83.86328125 65.16796875 83.86328125 65.16796875 80.86328125 66.16796875 C79.0324707 65.53466797 79.0324707 65.53466797 76.9765625 64.47265625 C76.21077881 64.08859619 75.44499512 63.70453613 74.65600586 63.30883789 C73.42829468 62.68223267 73.42829468 62.68223267 72.17578125 62.04296875 C44.71240589 48.52733223 9.65991867 43.8487741 -20.13671875 52.16796875 C-27.99391025 55.10306853 -35.35030484 59.39585598 -39.13671875 67.16796875 C-40.91235623 73.10760116 -41.13424863 79.62587702 -38.76171875 85.41796875 C-34.32957935 93.22547409 -23.45660557 96.87155873 -15.3359375 99.30859375 C-13.83482975 99.68958643 -12.33060407 100.0584091 -10.82421875 100.41796875 C-9.96683105 100.62413818 -9.10944336 100.83030762 -8.22607422 101.04272461 C3.95301972 103.821036 16.33618074 105.65421045 28.6730957 107.58105469 C50.50647364 111.03305438 72.58195247 116.17507135 90.86328125 129.16796875 C91.54519531 129.6475 92.22710938 130.12703125 92.9296875 130.62109375 C104.21165746 139.40437238 110.59897265 153.32301718 112.86328125 167.16796875 C114.51744424 186.27748982 111.29744518 204.54455648 99.65625 220.12109375 C97.48776982 222.59718671 95.24465965 224.89706666 92.86328125 227.16796875 C92.15429688 227.87308594 91.4453125 228.57820312 90.71484375 229.3046875 C67.35905587 251.43787998 30.68841379 256.62887444 -0.13671875 256.48046875 C-0.94619965 256.4783136 -1.75568054 256.47615845 -2.58969116 256.47393799 C-24.58772808 256.38032817 -44.95638213 253.15104758 -66.13671875 247.16796875 C-66.8632666 246.96445801 -67.58981445 246.76094727 -68.33837891 246.55126953 C-81.48880128 242.77495482 -94.92676731 237.07771049 -106.13671875 229.16796875 C-105.56338948 225.79560609 -104.74315205 223.00313406 -103.21899414 219.94433594 C-102.62816795 218.74849884 -102.62816795 218.74849884 -102.02540588 217.52850342 C-101.59936569 216.68249573 -101.1733255 215.83648804 -100.734375 214.96484375 C-100.07773109 213.64725067 -100.07773109 213.64725067 -99.40782166 212.30303955 C-98.48357191 210.45250289 -97.55630338 208.60347128 -96.6262207 206.75585938 C-95.19947408 203.91847653 -93.78568479 201.07489732 -92.37304688 198.23046875 C-91.47342592 196.43320828 -90.57306098 194.63631999 -89.671875 192.83984375 C-89.03585106 191.55868683 -89.03585106 191.55868683 -88.38697815 190.25164795 C-87.79142372 189.07472382 -87.79142372 189.07472382 -87.18383789 187.87402344 C-86.83599747 187.18072937 -86.48815704 186.4874353 -86.129776 185.77313232 C-85.13671875 184.16796875 -85.13671875 184.16796875 -83.13671875 183.16796875 C-81.25170898 183.96899414 -81.25170898 183.96899414 -78.9453125 185.265625 C-78.09146973 185.73476318 -77.23762695 186.20390137 -76.35791016 186.68725586 C-75.43929199 187.19651611 -74.52067383 187.70577637 -73.57421875 188.23046875 C-64.31530855 193.21694717 -55.1920109 197.13374024 -45.13671875 200.16796875 C-43.93273438 200.544375 -42.72875 200.92078125 -41.48828125 201.30859375 C-18.29681561 208.04971391 9.46100303 211.18260512 32.86328125 204.16796875 C34.26707031 203.7503125 34.26707031 203.7503125 35.69921875 203.32421875 C42.95558746 200.79647469 48.2869563 196.6299054 52.86328125 190.48046875 C54.69844995 184.40147244 55.25915011 177.18927263 52.48828125 171.29296875 C46.75680376 163.05647487 34.78747164 159.54918358 25.40216064 157.67703247 C19.43193747 156.61182302 13.43785436 155.6989628 7.44210815 154.79046631 C-67.18549974 143.42385977 -67.18549974 143.42385977 -87.13671875 119.16796875 C-98.44657006 103.66292314 -101.1784261 84.55344754 -98.84814453 65.85205078 C-95.5818881 46.55702454 -84.27060933 32.1204047 -69.2109375 20.26171875 C-63.21040905 16.17495478 -56.74695823 13.13205066 -50.13671875 10.16796875 C-49.08871094 9.68328125 -48.04070313 9.19859375 -46.9609375 8.69921875 C-32.64162201 2.60747364 -15.51432275 0.02717786 0 0 Z " fill="#010101" transform="translate(2421.13671875,202.83203125)"/>
<path d="M0 0 C19.47 0 38.94 0 59 0 C59 114.84 59 229.68 59 348 C39.53 348 20.06 348 0 348 C0 233.16 0 118.32 0 0 Z " fill="#000000" transform="translate(1898,108)"/>
<path d="M0 0 C3.56939155 2.79409352 6.81892233 5.77380066 10 9 C10.62390625 9.61359375 11.2478125 10.2271875 11.890625 10.859375 C27.45291343 27.26286821 31.57028144 49.11333973 31.26953125 70.95703125 C30.6070507 91.67668149 21.95908626 111.77257838 6.875 126.1875 C-12.22257593 142.19527879 -33.91735539 144.33937964 -58 143 C-73.78684467 141.14046881 -88.96696101 131.13345529 -99.28125 119.40625 C-114.8763002 99.01272282 -119.4168524 75.62658946 -116.72753906 50.44921875 C-114.44613855 35.27435073 -107.29735679 21.28506244 -97 10 C-96.47148438 9.37996094 -95.94296875 8.75992187 -95.3984375 8.12109375 C-72.11928855 -17.50890522 -27.59640996 -18.78664198 0 0 Z " fill="#FDFDFD" transform="translate(1125,265)"/>
<path d="M0 0 C1.45317723 1.18943332 2.89115074 2.3977095 4.3125 3.625 C4.99054688 4.20765625 5.66859375 4.7903125 6.3671875 5.390625 C15.4414375 13.79401605 21.29988582 25.04313633 25.3125 36.625 C25.6321875 37.52476562 25.951875 38.42453125 26.28125 39.3515625 C31.08371668 55.8489249 29.8860657 75.50215944 24.3125 91.625 C24.01214844 92.53765625 23.71179687 93.4503125 23.40234375 94.390625 C16.99350316 112.03574454 4.73428241 126.49649814 -12.375 134.5 C-23.85161805 139.28880465 -33.65323503 140.80518322 -46.0625 140.8125 C-47.14789062 140.82474609 -48.23328125 140.83699219 -49.3515625 140.84960938 C-55.74932487 140.86119952 -61.52804077 140.36943429 -67.6875 138.625 C-68.60917969 138.37621094 -69.53085938 138.12742187 -70.48046875 137.87109375 C-88.743599 131.70393557 -102.3820185 118.83784411 -111.12109375 101.8359375 C-120.30093454 82.4956201 -122.9643861 55.43707918 -116.07421875 34.86328125 C-107.15796821 14.04195253 -94.06967055 -1.50978213 -72.6875 -10.375 C-48.64478149 -19.66235869 -20.48302785 -15.24963156 0 0 Z " fill="#FEFEFE" transform="translate(1425.6875,267.375)"/>
<path d="M0 0 C6.6415307 4.73455654 11.10897573 10.52236686 12.7421875 18.625 C14.18575059 28.05384248 10.28956549 36.11551589 6.7421875 44.625 C6.0821875 44.625 5.4221875 44.625 4.7421875 44.625 C4.50295122 45.18913699 4.26371494 45.75327398 4.01722908 46.33450603 C2.46648964 49.12026563 0.59825855 51.01769181 -1.65847778 53.27290344 C-3.04621651 54.6669339 -3.04621651 54.6669339 -4.46199036 56.08912659 C-5.49035183 57.11200465 -6.51881283 58.13478267 -7.54736328 59.1574707 C-8.62868276 60.23986336 -9.70956908 61.32268889 -10.79005432 62.40591431 C-13.72589306 65.34660144 -16.66794698 68.28099747 -19.6112771 71.21418405 C-22.69513905 74.2892546 -25.77371984 77.36960401 -28.85299683 80.44926453 C-34.02977937 85.62511022 -39.21042033 90.79706822 -44.39355469 95.96655273 C-50.37252338 101.92983307 -56.34628731 107.898286 -62.31704915 113.86978275 C-68.68524983 120.23866124 -75.05726257 126.60371538 -81.43038321 132.9676702 C-83.25956279 134.79472608 -85.08803775 136.62248458 -86.91635513 138.45040321 C-89.80154649 141.33458323 -92.68929925 144.21617528 -95.57897758 147.09585953 C-96.63430984 148.14829272 -97.68882241 149.20154866 -98.74241447 150.25572395 C-103.87928749 155.39436287 -109.0551773 160.42947228 -114.57279968 165.16220188 C-116.80747326 167.10217306 -118.89477633 169.16351178 -120.97045898 171.27172852 C-121.80169785 172.11272598 -122.63293671 172.95372345 -123.48936462 173.82020569 C-124.36041336 174.70582687 -125.2314621 175.59144806 -126.12890625 176.50390625 C-127.53766018 177.92569671 -128.94642355 179.34747796 -130.35572147 180.76872921 C-133.7919037 184.23516269 -137.22300478 187.70656348 -140.64672852 191.18530273 C-142.57952954 193.14866632 -144.51641194 195.10783493 -146.45777893 197.06272888 C-148.27389166 198.89186432 -150.08409959 200.72688845 -151.88731384 202.56874084 C-161.4543464 212.17537984 -170.37723263 218.55672399 -184.1953125 219.125 C-192.98640473 218.89764417 -199.10927539 216.21462199 -205.1953125 209.875 C-210.15113741 203.63346579 -211.80119231 197.08407279 -211.5546875 189.18359375 C-210.87274125 183.30629385 -209.00022541 177.84750807 -206.2578125 172.625 C-205.5978125 172.625 -204.9378125 172.625 -204.2578125 172.625 C-203.98514053 172.03504745 -203.71246857 171.44509491 -203.43153381 170.83726501 C-198.58212794 161.69695988 -188.99884571 154.22003611 -181.73046875 146.96484375 C-180.4142779 145.64797787 -179.0982354 144.3309637 -177.78233337 143.0138092 C-175.03465106 140.26465926 -172.2851856 137.51730881 -169.53442383 134.77124023 C-166.02658687 131.26909997 -162.52325943 127.76248849 -159.02126408 124.25450802 C-156.30773844 121.53735145 -153.59181405 118.82260257 -150.8751812 116.10855293 C-149.58319354 114.81722755 -148.29193495 113.52517228 -147.00145149 112.23234367 C-145.1909726 110.4192964 -143.37726924 108.60953375 -141.56274414 106.80053711 C-141.04145935 106.27722809 -140.52017456 105.75391907 -139.98309326 105.2147522 C-137.20931835 102.45644315 -134.36797344 99.82873816 -131.40400696 97.27516174 C-126.93293323 93.39891586 -122.77362826 89.25222831 -118.61376953 85.046875 C-117.78985718 84.21828979 -116.96594482 83.38970459 -116.11706543 82.53601074 C-114.34056719 80.7490675 -112.56517091 78.96102819 -110.7907753 77.17199707 C-107.97610671 74.33517061 -105.15750554 71.50228909 -102.33737183 68.67089844 C-94.32385993 60.62415246 -86.31461639 52.57319177 -78.31591797 44.51171875 C-73.88630965 40.04743208 -69.45123447 35.58865119 -65.01016891 31.13576126 C-62.66840629 28.78727564 -60.33039645 26.43524141 -57.99744034 24.07800293 C-55.39211661 21.44603097 -52.77747489 18.82365001 -50.16064453 16.203125 C-49.40500214 15.43512573 -48.64935974 14.66712646 -47.87081909 13.87585449 C-35.7954629 1.84506671 -16.91362394 -10.30033845 0 0 Z " fill="#000000" transform="translate(235.2578125,139.375)"/>
<path d="M0 0 C6.11131815 6.11131815 8.17364601 12.44141771 8.5 20.9375 C8.23869079 34.03562427 0.34326063 44.38409613 -8.64141846 53.27909851 C-9.29694128 53.94000687 -9.9524641 54.60091523 -10.62785125 55.28185111 C-12.80378272 57.47197294 -14.99015215 59.65134978 -17.17675781 61.83081055 C-18.7482178 63.40797871 -20.31904785 64.98577474 -21.88929749 66.56414795 C-26.14065225 70.83339864 -30.40146647 75.0930867 -34.66463184 79.35053992 C-38.22852425 82.91133563 -41.78780717 86.47672114 -45.3471334 90.04208022 C-54.22579585 98.93557546 -63.11363932 107.81982772 -72.00576827 116.69985179 C-79.71297565 124.39712703 -87.40868462 132.10578055 -95.09895578 139.81997349 C-103.01292887 147.75837678 -110.9345098 155.68911784 -118.86383128 163.61219627 C-123.30848011 168.05347961 -127.75020441 172.49758823 -132.18454742 176.94916344 C-136.35512095 181.13523658 -140.5353399 185.31143538 -144.72305107 189.48036194 C-146.25427126 191.00790482 -147.78212401 192.53883221 -149.30625343 194.07345009 C-160.60573243 205.44470561 -170.72522747 215.47669571 -187.625 215.6875 C-194.59857251 215.7093541 -199.39741307 214.93011273 -204.88671875 210.265625 C-212.23148207 202.35809986 -214.26769766 196.17769041 -214.1484375 185.50390625 C-212.82617062 169.16446556 -198.50087636 157.31490447 -187.62744141 146.48925781 C-186.07390833 144.93165418 -184.52101299 143.37341425 -182.96870422 141.81459045 C-178.77108468 137.60335042 -174.56409863 133.40158792 -170.35490084 129.20192432 C-165.94102825 124.79567428 -161.53451084 120.38207825 -157.12680054 115.96966553 C-149.25301916 108.09008621 -141.37171488 100.21807327 -133.48739652 92.34903952 C-126.35161038 85.22665936 -119.22373251 78.0964442 -112.1015625 70.96044922 C-103.81133232 62.65413404 -95.51604587 54.35291784 -87.21334398 46.05906749 C-82.8253738 41.67576425 -78.43943168 37.29048333 -74.05876541 32.89987946 C-69.94019231 28.77261562 -65.8143019 24.65280698 -61.68274498 20.53854179 C-60.17133385 19.03108394 -58.66244477 17.52109235 -57.15633202 16.00834084 C-55.09325681 13.93701461 -53.02107395 11.87523239 -50.94644165 9.81549072 C-50.35877128 9.22112819 -49.77110091 8.62676566 -49.16562235 8.01439214 C-35.23795382 -5.72126453 -17.43775759 -11.3724506 0 0 Z " fill="#000000" transform="translate(353.875,257.875)"/>
<path d="M0 0 C5.27779593 4.43548102 10.29388423 9.40304517 11.16723633 16.53222656 C11.31193724 18.77650434 11.36358954 21.00108136 11.37109375 23.25 C11.37496094 24.0445459 11.37882813 24.8390918 11.3828125 25.65771484 C11.25001575 32.47046495 9.52979058 37.79402371 5.93359375 43.625 C5.27359375 43.625 4.61359375 43.625 3.93359375 43.625 C3.69080909 44.19213022 3.44802443 44.75926044 3.19788265 45.34357643 C1.6901625 48.06427444 -0.10093881 49.92048589 -2.29502869 52.1277771 C-3.18219574 53.02491928 -4.06936279 53.92206146 -4.9834137 54.84638977 C-5.96921759 55.83308945 -6.95513765 56.81967308 -7.94116211 57.80615234 C-8.97817675 58.8507905 -10.01478783 59.89582941 -11.05102539 60.9412384 C-13.86680592 63.77896173 -16.68912992 66.61008747 -19.51335979 69.43939924 C-21.28035748 71.21004313 -23.04605037 72.98197772 -24.81131172 74.75435257 C-30.97826503 80.94580718 -37.15092554 87.13151263 -43.32836914 93.3125 C-49.07163568 99.05939427 -54.8016624 104.81926 -60.52573293 110.58526838 C-65.45031546 115.54465178 -70.38458184 120.49426289 -75.32624727 125.43662417 C-78.27300638 128.38417325 -81.21571961 131.33549527 -84.1485424 134.29691696 C-86.91260757 137.08732816 -89.68862381 139.86529244 -92.47385406 142.63457298 C-93.48791011 143.64682717 -94.4977989 144.66327821 -95.50289345 145.68443108 C-104.92719599 155.24991667 -114.88787018 162.46089392 -128.69140625 162.875 C-137.39907031 162.60752909 -144.5702591 158.30043675 -150.50390625 152.0625 C-155.10897736 144.87858907 -154.90439265 136.87916599 -154.06640625 128.625 C-151.26501224 116.59173935 -142.47208551 107.58482808 -133.98120117 99.15161133 C-132.9696819 98.13601796 -131.95879996 97.11978948 -130.94850159 96.10298157 C-128.22388607 93.36478623 -125.4899834 90.63604959 -122.75380111 87.90941834 C-119.8787382 85.04200073 -117.01105869 82.16721348 -114.14216614 79.29362488 C-109.32500967 74.47102496 -104.50159587 69.65475154 -99.67456055 64.84204102 C-94.11010703 59.29391124 -88.55654273 53.73505744 -83.00850981 48.17051107 C-78.22741567 43.37576174 -73.44044851 38.58693488 -68.64860803 33.80292529 C-65.79428321 30.95325488 -62.94196987 28.10165038 -60.09496117 25.24466896 C-57.41686719 22.5578487 -54.73142506 19.87858762 -52.04036522 17.20475578 C-51.05949614 16.2278215 -50.08111131 15.24838492 -49.10554886 14.26615143 C-36.72610949 1.8099498 -17.76249785 -11.81928023 0 0 Z " fill="#000000" transform="translate(265.06640625,225.375)"/>
<path d="M0 0 C9.46455123 6.45690065 15.86235003 14.67116922 18.09765625 26.11328125 C18.90305692 34.88026559 17.32809422 41.97949993 14.09765625 50.11328125 C13.43765625 50.11328125 12.77765625 50.11328125 12.09765625 50.11328125 C11.81921875 51.13421875 11.81921875 51.13421875 11.53515625 52.17578125 C7.38044813 60.66583698 -0.48221994 64.57421652 -8.90234375 68.11328125 C-17.72331458 71.10161014 -28.53669758 69.63565858 -36.90234375 66.11328125 C-36.90234375 65.45328125 -36.90234375 64.79328125 -36.90234375 64.11328125 C-37.89234375 63.83484375 -37.89234375 63.83484375 -38.90234375 63.55078125 C-47.59733362 59.38443194 -53.18326593 51.91097579 -56.71484375 43.08203125 C-59.57265312 33.39723284 -58.39914474 23.64736771 -53.68359375 14.8359375 C-48.16379967 5.86627213 -40.25150192 -1.16620654 -30.1640625 -4.453125 C-19.21790167 -6.55161179 -9.67419945 -5.54239441 0 0 Z " fill="#010101" transform="translate(332.90234375,394.88671875)"/>
<path d="M0 0 C6.55767166 5.32810822 11.47986352 12.56324256 13 21 C13.8255112 31.47219921 13.030212 39.51445737 8 49 C7.34 49 6.68 49 6 49 C5.74089844 49.58910156 5.48179688 50.17820313 5.21484375 50.78515625 C1.08027174 58.32310586 -7.26369454 62.15103697 -15 65 C-26.08333932 67.82516493 -35.17926773 64.8723852 -45.0625 59.7578125 C-53.97226483 54.42617131 -58.76534236 46.70397293 -62 37 C-63.03499184 24.22636651 -62.20196751 14.89007701 -54.01953125 4.48046875 C-38.95608674 -12.06462604 -17.476331 -13.0344302 0 0 Z " fill="#010101" transform="translate(96,157)"/>
</svg>
